<svg id="Layer_1" data-name="Layer 1" xmlns="http://www.w3.org/2000/svg" width="256.2065" height="60.3874" viewBox="0 0 256.2065 60.3874"><defs><style>.cls-1{fill:#0086be;}.cls-2{fill:#fff;}</style></defs><path class="cls-1" d="M127.9369,60.2923q-63.55,0-127.0994-.0024c-1.07,0-.9321.15-.9323-.91Q-.0995,30.09-.0954.7994c0-.997-.1159-.8859.9039-.8859q127.1966-.0024,254.3929,0c1.0178,0,.9-.1109.9.8892q.0033,29.3227,0,58.6453c0,.97.1114.8424-.8715.8424Q191.5837,60.2937,127.9369,60.2923Z" transform="translate(0.1005 0.0902)"/><path class="cls-2" d="M172.2916,14.8273c-2.1323.02-4.2645.0267-6.3967-.0032-.541-.0075-.7753.1334-.91.6916q-2.1819,9.0215-4.4173,18.0294c-.2958,1.2037-.5971,2.4061-.902,3.6351-.2524-.1689-.2315-.38-.2759-.5625q-2.5714-10.5516-5.1275-21.1072c-.1329-.555-.36-.6954-.901-.6868-2.0237.0321-4.0482.0094-6.0728.0142-.9616.0025-.8829-.1287-.8829.9144q-.0028,14.37-.0019,28.74c0,.1293.0091.2589-.0009.3874-.0217.2892.0715.4267.3963.4243q2.5524-.0187,5.1039,0c.314.0023.4-.1088.4017-.4105.0425-5.1666-.0235-10.3307-.3239-15.49-.0886-1.5112-.1357-3.0247-.2035-4.59.2723.1536.247.3691.2958.5419q.8305,2.9466,1.651,5.8964,1.8875,6.7673,3.766,13.537a.5938.5938,0,0,0,.7092.5216c.9246-.0369,1.8536-.0471,2.7773.0029.4993.0269.6495-.1857.768-.61q2.6989-9.7193,5.4242-19.4316c.0579-.2067.0706-.4429.2135-.57,0,1.07.0534,2.1422-.009,3.2076-.3284,5.6113-.4062,11.2268-.3655,16.8455.0027.4039.0859.5622.5283.555q2.39-.0387,4.781.0009c.4695.0084.5636-.1538.5627-.5882q-.0164-14.6605.0009-29.3212C172.8814,14.939,172.733,14.8232,172.2916,14.8273Z" transform="translate(0.1005 0.0902)"/><path class="cls-2" d="M112.2607,29.28a.91.91,0,0,1,.0235-1.0435q3.7968-6.3376,7.5583-12.6966a1.3283,1.3283,0,0,0,.3039-.7038c-2.1919,0-4.345.0149-6.4971-.0113a.8582.8582,0,0,0-.9245.5758c-1.6935,3.5982-3.4467,7.1684-5.1013,10.784a1.5139,1.5139,0,0,1-1.7188,1.0871c-.6151-.0457-.7807-.1771-.7753-.7981.0308-3.68.01-7.3613.0226-11.0418.001-.4161-.0651-.6154-.5527-.6065-1.6148.0294-3.2305.0239-4.8452.0027-.43-.0059-.5473.1415-.5473.5572q.0149,14.69,0,29.38c-.0009.4225.1194.55.5464.5423,1.5288-.0248,3.0585-.04,4.5865.005.6242.0186.8313-.109.8232-.7915-.0389-3.7231-.0081-7.447-.03-11.1707-.0036-.5367.0824-.804.693-.7222a5.5412,5.5412,0,0,0,1.2891.0016.802.802,0,0,1,.9155.5756c1.8147,3.8732,3.6629,7.7315,5.4866,11.6011a.7215.7215,0,0,0,.7717.5018c1.0765-.03,2.153-.01,3.23-.01h3.4122c-.1221-.24-.1935-.3914-.2732-.5387Q116.4646,37.0172,112.2607,29.28Z" transform="translate(0.1005 0.0902)"/><path class="cls-2" d="M141.9238,20.9942a9.7953,9.7953,0,0,0-9.0419-6.5514c-3.3046-.1669-6.2854.6163-8.6,3.1475a10.9657,10.9657,0,0,0-2.73,7.4646c-.0642,3.1187-.0135,6.24-.0253,9.36a15.2211,15.2211,0,0,0,.2714,3.0138,9.588,9.588,0,0,0,5.9733,7.5356,12.07,12.07,0,0,0,4.94.7348,9.84,9.84,0,0,0,9.7774-8.7926,57.5606,57.5606,0,0,0,.1972-6.4085c0-1.6281.0081-2.8977-.0018-4.1672A15.9353,15.9353,0,0,0,141.9238,20.9942Zm-5.26,15.2981c-.0389.2976-.0859.5959-.1538.8879-.5726,2.4663-2.1422,3.8085-4.439,3.8051-2.3313-.0036-3.8963-1.3669-4.43-3.8809a11.7344,11.7344,0,0,1-.27-2.4307c-.0036-3.0758-.0127-6.1516.0036-9.2273a9.6124,9.6124,0,0,1,.6287-3.5978,3.9543,3.9543,0,0,1,3.8113-2.6678,4.1108,4.1108,0,0,1,4.2282,2.4512,8.25,8.25,0,0,1,.7346,3.441c.0271,1.6772.0072,3.3551.0072,5.5382C136.71,32.1674,136.9338,34.2349,136.6642,36.2923Z" transform="translate(0.1005 0.0902)"/><path class="cls-2" d="M54.55,40.524c-3.5534.0226-7.1077-.0005-10.6612.0248-.5464.0039-.6775-.1531-.6712-.6832q.0435-3.6484.0009-7.2979c-.0054-.5256.1258-.6912.6722-.6862,2.9717.0267,5.9443,0,8.917.0249.5219.0045.6513-.1554.635-.6529-.0362-1.0969-.047-2.1972.0027-3.2931.0281-.605-.1139-.8007-.7617-.7921-2.95.0389-5.9009.0059-8.8518.0281-.4849.0034-.6188-.1294-.6134-.6143.0271-2.0879.0362-4.1771-.0036-6.2646-.0109-.6.1637-.7409.7463-.7364,3.5326.0272,7.0643.0041,10.5969.0247.4858.0029.6261-.13.6116-.6136-.0344-1.1615-.0389-2.3258.0009-3.4869.019-.5439-.1538-.6823-.6875-.6805q-8.24.0288-16.4771-.0045c-.6315-.0034-.7264.2123-.7237.7673.019,4.8224.0108,9.6448.0108,14.4674,0,4.8439.0082,9.688-.0117,14.5319-.0018.5358.0841.7312.6911.728q8.3032-.042,16.6055-.0068c.4822.0014.6812-.0877.66-.6262-.0434-1.1609-.0434-2.3256,0-3.4867C55.2594,40.6432,55.0767,40.5208,54.55,40.524Z" transform="translate(0.1005 0.0902)"/><path class="cls-2" d="M95.486,40.5242c-3.5543.0224-7.1078.0025-10.6621.0224-.4939.0027-.6576-.1106-.6513-.6339.03-2.4324.0353-4.8659-.0027-7.298-.01-.6147.1854-.7386.7572-.7332,2.9292.0274,5.8593-.0013,8.7885.0253.5464.005.6939-.1565.6749-.6888-.04-1.1182-.04-2.2395.0009-3.3576.019-.5333-.1312-.6925-.6767-.6875-2.95.0264-5.9019,0-8.8519.0244-.5238.0043-.7-.1138-.69-.6676q.05-3.1,0-6.2c-.0091-.5724.1212-.756.7309-.75,3.5317.0319,7.0643.0066,10.597.0262.4749.0028.6323-.1094.616-.6036-.0371-1.1615-.038-2.3258,0-3.4869.0163-.5256-.1176-.6934-.6712-.6911q-8.2707.0318-16.5422,0c-.5473-.0019-.6713.16-.6695.6845.02,4.8441.0118,9.6883.0118,14.5324q0,7.3309-.0009,14.6614c0,.3253-.067.6107.4659.6089q8.4959-.03,16.9936-.005c.3818.0009.4731-.1366.4686-.4881-.0154-1.2054-.0335-2.4122.0063-3.6163C96.197,40.6522,96.0152,40.5208,95.486,40.5242Z" transform="translate(0.1005 0.0902)"/><path class="cls-2" d="M33.085,14.8363c-5.835,0-11.67.0077-17.5048-.0124-.5446-.0021-.6884.1538-.6712.6823.0389,1.1611.0352,2.3247.0018,3.4858-.0145.4724.1013.624.5988.6154,1.8075-.0321,3.6177.014,5.4252-.0274.626-.0142.834.1111.8277.7956-.038,4.0241-.0181,8.0486-.0181,12.0731q0,6.0042.0018,12.0086c.0009.9757-.1149.8337.8694.8391,1.4212.0081,2.8433-.0272,4.2626.0163.5862.0176.7473-.1407.7464-.7371-.0209-8.1132-.01-16.2267-.0245-24.34-.0009-.4934.1077-.6633.6351-.654,1.8934.0335,3.7886.0014,5.6838.0219.42.0048.5573-.114.5437-.54-.03-.9458-.009-1.8934-.009-2.84C34.4537,14.8363,34.4537,14.8363,33.085,14.8363Z" transform="translate(0.1005 0.0902)"/><path class="cls-2" d="M74.5753,40.5237c-3.1635.0247-6.328.0152-9.4924.01-1.0014-.0013-.8856.1235-.8865-.8985-.0028-8.004-.0109-16.0078.0162-24.0116.0019-.6778-.1945-.8232-.8295-.8024-1.44.0475-2.8849.0506-4.3251-.0009-.65-.0235-.7716.1961-.768.7988.0244,4.8192.0135,9.6389.0135,14.4584q0,7.2939-.0027,14.5877c0,.36-.0425.6468.5048.645q8.0075-.03,16.0157-.005c.3637.0005.4813-.1058.4759-.4731-.02-1.2045-.0443-2.4113.0081-3.6138C75.3316,40.6167,75.1181,40.5194,74.5753,40.5237Z" transform="translate(0.1005 0.0902)"/><path class="cls-2" d="M240.9853,44.6645a6.75,6.75,0,0,1-1.0612-4.0467,41.6816,41.6816,0,0,0-.1284-4.8368c-.3528-2.4371-1.3823-4.378-3.871-5.2424a1.4712,1.4712,0,0,1-.2533-.1626,7.0724,7.0724,0,0,0,3.94-4.4889,9.693,9.693,0,0,0,.3013-3.901c-.2416-2.6-1.2367-4.7819-3.6539-6.0832a7.99,7.99,0,0,0-3.7162-.9607c-2.9935-.0383-5.9878-.01-8.9813-.0464-.5617-.0068-.7155.1291-.7137.7058q.0285,14.5.0136,29a1.3734,1.3734,0,0,1-.001.1936c-.0588.3888.0851.5444.4949.5113a6.4064,6.4064,0,0,1,1.29.0023c.5853.0719.7083-.1488.7056-.7086-.0253-4.1335-.0045-8.2672-.0244-12.4005-.0027-.5206.1158-.709.6721-.7,2.002.0324,4.0058.0043,6.0086.0147a5.0424,5.0424,0,0,1,5.3437,4.8371c.1864,1.6546.029,3.313.1113,4.9676a9.96,9.96,0,0,0,.5582,3.0966c.2343.6156.5762,1.0207,1.3343.8954a9.1911,9.1911,0,0,1,1.2909-.0143C241.121,45.2869,241.2711,45.0512,240.9853,44.6645ZM225.7575,29.4173c-.4306.0047-.4243-.2228-.4243-.527.0064-1.9155.0036-3.8311.0036-5.7467,0-1.83.0136-3.6595-.01-5.4887-.0063-.4776.08-.6739.6242-.6635,1.9377.0371,3.8764.0047,5.8141.0192,3.4241.0253,5.4188,1.8857,5.6766,5.303a8.8134,8.8134,0,0,1-.3655,3.57,5.028,5.028,0,0,1-4.9239,3.4946C230.0229,29.458,227.8888,29.394,225.7575,29.4173Z" transform="translate(0.1005 0.0902)"/><path class="cls-2" d="M194.8451,20.4012A9.9356,9.9356,0,0,0,185.51,14.832c-2.11.0256-4.22.0274-6.3289-.01-.5889-.01-.7092.178-.7074.73.0208,4.8417.0126,9.6835.0126,14.5254q0,7.2947-.0027,14.59c-.0009.363-.038.6509.5075.6441,2.4543-.0305,4.91.029,7.362-.0337a9.124,9.124,0,0,0,6.2845-2.6124,12.7574,12.7574,0,0,0,3.7325-7.4094,44.3592,44.3592,0,0,0,.2072-8.4385A13.8991,13.8991,0,0,0,194.8451,20.4012Zm-.9417,14.6065a11.4519,11.4519,0,0,1-2.2327,5.2874,7.0754,7.0754,0,0,1-5.78,2.8966c-1.4411.0163-2.884-.0171-4.3251.0157-.4957.0113-.61-.15-.6079-.6231.0181-4.1514.0109-8.3032.0109-12.4546,0-4.13.009-8.26-.0118-12.39-.0036-.5432.1-.7529.6975-.7289,1.2674.05,2.5393.0414,3.8085.01a7.4387,7.4387,0,0,1,6.9522,3.9842,12.2792,12.2792,0,0,1,1.6916,6.0186A42.2044,42.2044,0,0,1,193.9034,35.0077Z" transform="translate(0.1005 0.0902)"/><path class="cls-2" d="M217.5579,43.1838c-4.1116.0215-8.2241.003-12.3366.0226-.5265.0025-.6975-.1314-.6938-.6791q.0339-5.6809.0009-11.3623c-.0019-.4787.1212-.6194.6106-.6163,3.3155.0218,6.631.0114,9.9465.0114,1.4148,0,1.3895,0,1.4176-1.4242.0108-.5376-.1457-.6891-.684-.6857-3.5525.0231-7.105.0045-10.6575.0208-.465.0023-.6369-.1081-.6332-.6083q.0312-5.1-.0009-10.2c-.0028-.5174.1537-.65.6576-.6468,3.81.0194,7.6207.01,11.4319.01,1.4981,0,1.4755,0,1.5017-1.52.01-.534-.142-.6839-.68-.6817q-7.3642.0309-14.7267-.0006c-.5572-.0028-.664.1768-.6621.6929.0189,4.8419.0117,9.6839.0117,14.5258,0,4.8638.0082,9.7271-.0127,14.5907-.0027.5308.124.6812.6686.6784,4.6941-.0226,9.3874-.0129,14.0807-.0129,1.4429,0,1.4157-.0006,1.4465-1.4408C218.2562,43.3107,218.0871,43.1809,217.5579,43.1838Z" transform="translate(0.1005 0.0902)"/></svg>