<?xml version="1.0" encoding="utf-8"?>
<!-- Generator: Adobe Illustrator 26.3.1, SVG Export Plug-In . SVG Version: 6.00 Build 0)  -->
<svg version="1.1" id="Layer_1" xmlns="http://www.w3.org/2000/svg" xmlns:xlink="http://www.w3.org/1999/xlink" x="0px" y="0px"
	 width="160.2px" height="50px" viewBox="0 0 160.2 50" style="enable-background:new 0 0 160.2 50;" xml:space="preserve">
<style type="text/css">
	.st0{fill-rule:evenodd;clip-rule:evenodd;fill:#1FB7DC;}
	.st1{fill-rule:evenodd;clip-rule:evenodd;fill:#71C2B4;}
	.st2{fill-rule:evenodd;clip-rule:evenodd;fill:#FECA05;}
	.st3{fill-rule:evenodd;clip-rule:evenodd;fill:#EE7D3C;}
	.st4{fill-rule:evenodd;clip-rule:evenodd;fill:#224457;}
	.st5{fill:#009BBA;}
	.st6{fill:#57A497;}
	.st7{fill:#D5AC06;}
	.st8{fill:#CA682A;}
	.st9{fill:#224457;}
</style>
<path class="st0" d="M2.3,13.4L2.3,13.4c1.2,0,2.3,1,2.3,2.3v9.3c0,1.2-1,2.3-2.3,2.3l0,0c-1.2,0-2.3-1-2.3-2.3v-9.3
	C0,14.4,1,13.4,2.3,13.4"/>
<path class="st1" d="M8.9,9.3L8.9,9.3c1.2,0,2.3,1,2.3,2.3v13.4c0,1.2-1,2.3-2.3,2.3l0,0c-1.2,0-2.3-1-2.3-2.3V11.6
	C6.7,10.3,7.7,9.3,8.9,9.3"/>
<path class="st2" d="M15.6,5.1L15.6,5.1c1.3,0,2.3,1,2.3,2.3v17.6c0,1.2-1,2.3-2.3,2.3l0,0c-1.2,0-2.3-1-2.3-2.3V7.3
	C13.4,6.1,14.4,5.1,15.6,5.1"/>
<path class="st3" d="M22.3,0.8L22.3,0.8c1.2,0,2.3,1,2.3,2.3v21.8c0,1.2-1,2.3-2.3,2.3l0,0c-1.2,0-2.3-1-2.3-2.3V3.1
	C20,1.8,21.1,0.8,22.3,0.8"/>
<path class="st4" d="M33.2,7L33.2,7c0-0.6-0.5-1.1-1.1-1.1h-2.8c-0.6,0-1.1,0.5-1.1,1.1v19.2c0,0.6,0.5,1.1,1.1,1.1h3.2
	c0.6,0,1.1-0.5,1.1-1.1v-8.9c-0.1-1.1,0-2.2,0.4-3.2c0.2-0.9,0.8-1.6,1.5-2.2c0.7-0.6,1.6-0.8,2.5-0.8c0.7,0,1.3,0.2,1.8,0.6
	c0.5,0.4,0.9,1,1.1,1.6c0.3,1.5,0.4,3.1,0.3,4.6v8.4l0,0c0,0.6,0.5,1.1,1.1,1.1h3.2c0.6,0,1.1-0.5,1.1-1.1V15.3
	c0-1.3-0.1-2.6-0.3-3.9c-0.2-0.9-0.5-1.7-1-2.5c-0.6-0.8-1.3-1.4-2.2-1.8c-1-0.5-2.1-0.7-3.2-0.7c-2.7,0-5.2,1.4-6.6,3.8
	C33.2,10.2,33.2,7,33.2,7z"/>
<path class="st4" d="M85,11.1c0.6,0,1.1-0.5,1.1-1.1V7.6C86,7,85.5,6.5,85,6.5h-4.9V1.1l0,0C80.1,0.5,79.6,0,79,0h-3.1
	c-0.6,0-1.1,0.5-1.1,1.1l0,5.4h-3.6c-0.6,0-1.1,0.5-1.1,1.1V10c0,0.6,0.5,1.1,1.1,1.1h3.6v8.3c0,2.8,0.5,4.8,1.4,6s2.6,1.8,4.8,1.8
	h3.8c0.6,0,1.1-0.5,1.1-1.1v-2.3c0-0.6-0.5-1.1-1.1-1.1h-2c-0.9,0.1-1.8-0.3-2.3-1c-0.4-1.1-0.5-2.2-0.4-3.3v-7.3L85,11.1L85,11.1z"
	/>
<path class="st4" d="M55.8,15.3h8C63.8,8.9,55.9,9,55.8,15.3 M69.1,17.5L69.1,17.5L69.1,17.5c0,0.1,0,0.1,0,0.1l0,0v0l0,0v0l0,0v0
	l0,0v0l0,0c0,0,0,0,0,0.1v0l0,0v0l0,0v0h0v0h0v0h0v0h0v0l0,0l0,0v0h0v0h0v0h0v0l0,0l0,0v0h0v0h0v0h0c0,0,0,0-0.1,0l0,0v0h0v0h0v0h0
	v0h0v0h0v0h0v0h0v0h0v0h0v0h0v0h0v0h-0.1l0,0h0l0,0h0c0,0,0,0-0.1,0h-0.1l0,0h-0.1l0,0H55.8c0.1,3.5,2.4,5.2,4.5,5.1
	c1.6,0,3-1.2,3.3-2.8c0-0.6,0.5-1.1,1.1-1.1h3.2c0.6,0,1.1,0.5,1.1,1.1c-1.3,5.3-5,6.8-8.8,6.8c-4.7,0-9.1-2.2-9.7-9l0,0
	c-0.7-7.9,3.8-11.8,8.7-12.1C64.1,6.3,69.1,9.3,69.1,17.5L69.1,17.5z"/>
<path class="st4" d="M101.5,10.9h-4.3c-3,0-4.5,2-4.5,5.9c-0.1,1.6,0.3,3.1,1.2,4.4c0.9,1,2.2,1.6,3.5,1.5h4
	C101.5,22.8,101.5,10.9,101.5,10.9z M106.6,7.5c0-0.6-0.5-1.1-1.1-1.1H97c-1.2,0-2.4,0.1-3.5,0.4c-0.9,0.3-1.8,0.7-2.6,1.3
	c-2.3,1.8-3.4,4.7-3.4,8.6c0,3.4,0.9,6.1,2.8,8.1c0.7,0.8,1.7,1.4,2.7,1.8c1.2,0.4,2.5,0.6,3.8,0.5h4.8c0.1,0.8-0.1,1.7-0.5,2.4
	c-0.6,0.5-1.4,0.7-2.2,0.6h-9.6c-0.6,0-1.1,0.5-1.1,1.1v2.3c0,0.6,0.5,1.1,1.1,1.1h10.3c1.2,0,2.5-0.1,3.7-0.5
	c0.9-0.3,1.6-0.9,2.1-1.7c0.5-0.7,0.9-1.5,1.1-2.3c0.2-1,0.4-2.1,0.3-3.1L106.6,7.5L106.6,7.5z"/>
<path class="st4" d="M127.2,10.9V6.5 M127.2,6.5v1 M112.1,27.2L112.1,27.2c-0.6,0-1.1-0.5-1.1-1.1v-2.3c0-0.6,0.5-1.1,1.1-1.1
	c-4.4,0,6.7,0,8.2,0h1.2c0.4,0,0.8,0,1.1-0.1c0.8,0,1.4-0.7,1.4-1.5c0,0,0-0.1,0-0.1c0.1-0.7-0.3-1.4-0.9-1.8
	c-0.7-0.2-1.5-0.3-2.3-0.3h-3.1c-0.9,0-1.9-0.1-2.8-0.2c-0.7-0.2-1.3-0.5-1.8-0.9c-0.7-0.6-1.3-1.4-1.6-2.2c-0.4-1-0.6-2-0.6-3.1
	c-0.1-1.9,0.7-3.7,2.1-4.9c0.5-0.4,1.1-0.7,1.7-0.8c0.9-0.2,1.7-0.3,2.6-0.3h10c0.6,0,1.1,0.5,1.1,1.1v2.3c0,0.6-0.5,1.1-1.1,1.1
	h-8.1c-0.7,0-1.3,0-2,0.2c-0.6,0.2-0.9,0.8-0.9,1.7c0,0.7,0.3,1.3,0.8,1.7c0.8,0.3,1.7,0.4,2.5,0.3h3.1c1.7-0.1,3.3,0.4,4.6,1.4
	c1.3,1.1,2,2.8,1.9,4.5c0,1.5-0.4,2.9-1.1,4.1c-0.5,0.9-1.2,1.5-2.1,1.9c-1.3,0.4-2.7,0.6-4.1,0.5L112.1,27.2L112.1,27.2z"/>
<path class="st4" d="M160.2,26.1L160.2,26.1 M137.1,6.5h-2.8c-0.6,0-1.1,0.5-1.1,1.1v18.6c0,0.6,0.5,1.1,1.1,1.1h3.1
	c0.6,0,1.1-0.5,1.1-1.1V10.9h5.6v15.2c0,0.6,0.5,1.1,1.1,1.1h3.1c0.6,0,1.1-0.5,1.1-1.1V10.9h2.8c0.9-0.1,1.8,0.2,2.4,0.9
	c0.3,0.3,0.4,0.7,0.5,1.1c0.1,0.7,0.1,1.4,0.1,2.1v11.2l0,0v0.2l0,0v0l0,0v0l0,0v0l0,0v0l0,0v0l0,0v0l0,0v0l0,0v0l0,0l0,0l0,0l0,0
	l0,0l0,0l0,0l0,0l0,0l0,0l0,0l0,0l0,0l0,0l0,0h0l0,0h0l0,0h0l0,0h0l0,0h0l0,0h0l0,0h0l0,0h0.1l0,0h0.1l0,0h3.2c0.6,0,1.1-0.5,1.1-1
	V14c0.1-2-0.5-4-1.7-5.6c-0.6-0.7-1.4-1.2-2.2-1.5c-1.3-0.3-2.6-0.4-4-0.4L137.1,6.5L137.1,6.5z"/>
<path class="st5" d="M4.6,15.6c0,1.3-1,2.3-2.3,2.3c-1.3,0-2.3-1-2.3-2.3s1-2.3,2.3-2.3l0,0C3.5,13.4,4.5,14.4,4.6,15.6"/>
<path class="st6" d="M11.2,11.6c0,1.3-1,2.3-2.3,2.3s-2.3-1-2.3-2.3c0-1.3,1-2.3,2.3-2.3l0,0C10.2,9.3,11.2,10.3,11.2,11.6"/>
<path class="st7" d="M17.9,7.3c0,1.3-1,2.3-2.3,2.3c-1.3,0-2.3-1-2.3-2.3c0-1.3,1-2.3,2.3-2.3l0,0C16.9,5.1,17.9,6.1,17.9,7.3"/>
<path class="st8" d="M24.6,3.1c0,1.3-1,2.3-2.3,2.3S20,4.3,20,3.1c0-1.3,1-2.3,2.3-2.3l0,0C23.6,0.8,24.6,1.8,24.6,3.1"/>
<g>
	<path class="st9" d="M37.4,38.1c0.7,0.4,1.3,0.9,1.7,1.6c0.4,0.7,0.6,1.5,0.6,2.4c0,0.9-0.2,1.7-0.6,2.4c-0.4,0.7-0.9,1.2-1.7,1.6
		c-0.7,0.4-1.6,0.5-2.6,0.5H32v-9.1h2.8C35.8,37.6,36.7,37.7,37.4,38.1z M37.5,44.7c0.6-0.6,0.9-1.5,0.9-2.6c0-1.1-0.3-2-0.9-2.6
		c-0.6-0.6-1.5-0.9-2.7-0.9h-1.6v7.1h1.6C36,45.6,36.9,45.3,37.5,44.7z"/>
	<path class="st9" d="M41.2,38.1c-0.2-0.2-0.2-0.3-0.2-0.6s0.1-0.4,0.2-0.6c0.2-0.2,0.3-0.2,0.6-0.2c0.2,0,0.4,0.1,0.6,0.2
		c0.2,0.2,0.2,0.3,0.2,0.6s-0.1,0.4-0.2,0.6c-0.2,0.2-0.3,0.2-0.6,0.2C41.6,38.3,41.4,38.3,41.2,38.1z M42.4,39.5v7.1h-1.2v-7.1
		H42.4z"/>
	<path class="st9" d="M45.6,48.2c0,0.6-0.2,1.1-0.5,1.4c-0.3,0.3-0.8,0.4-1.4,0.4H43v-1h0.5c0.3,0,0.6-0.1,0.7-0.2
		c0.1-0.1,0.2-0.4,0.2-0.7v-8.6h1.2V48.2z M44.5,38.1c-0.2-0.2-0.2-0.3-0.2-0.6s0.1-0.4,0.2-0.6c0.2-0.2,0.3-0.2,0.6-0.2
		c0.2,0,0.4,0.1,0.6,0.2c0.2,0.2,0.2,0.3,0.2,0.6s-0.1,0.4-0.2,0.6c-0.2,0.2-0.3,0.2-0.6,0.2C44.8,38.3,44.6,38.3,44.5,38.1z"/>
	<path class="st9" d="M47.7,38.1c-0.2-0.2-0.2-0.3-0.2-0.6s0.1-0.4,0.2-0.6c0.2-0.2,0.3-0.2,0.6-0.2c0.2,0,0.4,0.1,0.6,0.2
		c0.2,0.2,0.2,0.3,0.2,0.6s-0.1,0.4-0.2,0.6c-0.2,0.2-0.3,0.2-0.6,0.2C48,38.3,47.8,38.3,47.7,38.1z M48.8,39.5v7.1h-1.2v-7.1H48.8z
		"/>
	<path class="st9" d="M52.3,40.5v4.2c0,0.3,0.1,0.6,0.2,0.7c0.1,0.1,0.4,0.2,0.8,0.2h0.9v1h-1.1c-0.7,0-1.2-0.2-1.5-0.5
		c-0.3-0.3-0.5-0.8-0.5-1.5v-4.2h-0.9v-1h0.9v-1.8h1.2v1.8h1.9v1H52.3z"/>
	<path class="st9" d="M55.5,41.1c0.3-0.5,0.7-1,1.2-1.3c0.5-0.3,1.1-0.5,1.7-0.5c0.6,0,1.2,0.1,1.6,0.4s0.8,0.6,1,1v-1.3h1.2v7.1
		h-1.2v-1.3c-0.2,0.4-0.6,0.8-1,1c-0.5,0.3-1,0.4-1.6,0.4c-0.6,0-1.2-0.2-1.7-0.5c-0.5-0.3-0.9-0.8-1.2-1.3
		c-0.3-0.6-0.4-1.2-0.4-1.9C55.1,42.3,55.3,41.7,55.5,41.1z M60.8,41.6c-0.2-0.4-0.5-0.7-0.9-0.9c-0.4-0.2-0.8-0.3-1.2-0.3
		c-0.4,0-0.8,0.1-1.2,0.3c-0.4,0.2-0.7,0.5-0.9,0.9c-0.2,0.4-0.3,0.9-0.3,1.4c0,0.5,0.1,1,0.3,1.4c0.2,0.4,0.5,0.7,0.9,0.9
		c0.4,0.2,0.8,0.3,1.2,0.3c0.4,0,0.8-0.1,1.2-0.3c0.4-0.2,0.7-0.5,0.9-0.9c0.2-0.4,0.3-0.9,0.3-1.4C61.1,42.5,61,42,60.8,41.6z"/>
	<path class="st9" d="M65.5,37v9.6h-1.2V37H65.5z"/>
	<path class="st9" d="M72.8,46.1c-0.7-0.4-1.2-0.9-1.6-1.7s-0.6-1.5-0.6-2.4s0.2-1.7,0.6-2.4c0.4-0.7,1-1.3,1.6-1.7s1.5-0.6,2.3-0.6
		c0.8,0,1.6,0.2,2.3,0.6s1.2,0.9,1.6,1.6c0.4,0.7,0.6,1.5,0.6,2.4s-0.2,1.7-0.6,2.4c-0.4,0.7-0.9,1.2-1.6,1.6
		c-0.7,0.4-1.5,0.6-2.3,0.6C74.3,46.7,73.5,46.5,72.8,46.1z M76.8,45.2c0.5-0.3,0.9-0.7,1.2-1.3c0.3-0.5,0.4-1.2,0.4-1.9
		c0-0.7-0.1-1.4-0.4-1.9c-0.3-0.5-0.7-1-1.2-1.3c-0.5-0.3-1.1-0.4-1.7-0.4c-0.6,0-1.2,0.1-1.7,0.4c-0.5,0.3-0.9,0.7-1.2,1.3
		c-0.3,0.5-0.4,1.2-0.4,1.9c0,0.7,0.1,1.4,0.4,1.9c0.3,0.5,0.7,1,1.2,1.3c0.5,0.3,1.1,0.4,1.7,0.4S76.3,45.5,76.8,45.2z"/>
	<path class="st9" d="M83.5,39.8c0.5-0.3,1-0.4,1.6-0.4c0.6,0,1.2,0.2,1.7,0.5c0.5,0.3,0.9,0.7,1.2,1.3c0.3,0.6,0.4,1.2,0.4,1.9
		c0,0.7-0.1,1.4-0.4,1.9s-0.7,1-1.2,1.3c-0.5,0.3-1.1,0.5-1.7,0.5c-0.6,0-1.1-0.1-1.6-0.4c-0.5-0.3-0.8-0.6-1.1-1V50h-1.2V39.5h1.2
		v1.3C82.6,40.4,83,40.1,83.5,39.8z M86.9,41.6c-0.2-0.4-0.5-0.7-0.9-0.9s-0.8-0.3-1.2-0.3c-0.4,0-0.8,0.1-1.2,0.3
		c-0.4,0.2-0.7,0.5-0.9,0.9s-0.3,0.9-0.3,1.4c0,0.5,0.1,1,0.3,1.4c0.2,0.4,0.5,0.7,0.9,0.9c0.4,0.2,0.8,0.3,1.2,0.3
		c0.4,0,0.8-0.1,1.2-0.3c0.4-0.2,0.7-0.5,0.9-0.9c0.2-0.4,0.3-0.9,0.3-1.4C87.2,42.5,87.1,42,86.9,41.6z"/>
	<path class="st9" d="M96.5,43.5h-5.7c0,0.7,0.3,1.2,0.7,1.6c0.4,0.4,1,0.6,1.6,0.6c0.5,0,0.9-0.1,1.3-0.4c0.3-0.2,0.6-0.6,0.7-1
		h1.3c-0.2,0.7-0.6,1.2-1.1,1.7c-0.6,0.4-1.3,0.6-2.1,0.6c-0.7,0-1.3-0.2-1.8-0.5s-1-0.7-1.3-1.3c-0.3-0.6-0.5-1.2-0.5-1.9
		c0-0.7,0.1-1.4,0.4-1.9s0.7-1,1.2-1.3c0.5-0.3,1.1-0.4,1.8-0.4c0.7,0,1.3,0.1,1.8,0.4c0.5,0.3,0.9,0.7,1.2,1.2
		c0.3,0.5,0.4,1.1,0.4,1.7C96.5,43,96.5,43.2,96.5,43.5z M95,41.4c-0.2-0.3-0.5-0.6-0.8-0.7c-0.3-0.2-0.7-0.3-1.1-0.3
		c-0.6,0-1.1,0.2-1.5,0.6c-0.4,0.4-0.7,0.9-0.7,1.6h4.5C95.3,42.1,95.2,41.7,95,41.4z"/>
	<path class="st9" d="M100.1,39.7c0.4-0.2,0.9-0.3,1.4-0.3v1.2h-0.3c-1.3,0-2,0.7-2,2.2v3.9h-1.2v-7.1h1.2v1.2
		C99.5,40.2,99.8,39.9,100.1,39.7z"/>
	<path class="st9" d="M102.9,41.1c0.3-0.5,0.7-1,1.2-1.3c0.5-0.3,1.1-0.5,1.7-0.5c0.6,0,1.2,0.1,1.6,0.4c0.5,0.3,0.8,0.6,1,1v-1.3
		h1.2v7.1h-1.2v-1.3c-0.2,0.4-0.6,0.8-1,1c-0.5,0.3-1,0.4-1.6,0.4c-0.6,0-1.2-0.2-1.7-0.5c-0.5-0.3-0.9-0.8-1.2-1.3
		c-0.3-0.6-0.4-1.2-0.4-1.9C102.5,42.3,102.6,41.7,102.9,41.1z M108.2,41.6c-0.2-0.4-0.5-0.7-0.9-0.9c-0.4-0.2-0.8-0.3-1.2-0.3
		s-0.8,0.1-1.2,0.3s-0.7,0.5-0.9,0.9s-0.3,0.9-0.3,1.4c0,0.5,0.1,1,0.3,1.4c0.2,0.4,0.5,0.7,0.9,0.9c0.4,0.2,0.8,0.3,1.2,0.3
		s0.8-0.1,1.2-0.3c0.4-0.2,0.7-0.5,0.9-0.9c0.2-0.4,0.3-0.9,0.3-1.4C108.5,42.5,108.4,42,108.2,41.6z"/>
	<path class="st9" d="M113.2,40.5v4.2c0,0.3,0.1,0.6,0.2,0.7c0.1,0.1,0.4,0.2,0.8,0.2h0.9v1h-1.1c-0.7,0-1.2-0.2-1.5-0.5
		c-0.3-0.3-0.5-0.8-0.5-1.5v-4.2H111v-1h0.9v-1.8h1.2v1.8h1.9v1H113.2z"/>
	<path class="st9" d="M117.7,46.3c-0.5-0.3-1-0.7-1.3-1.3c-0.3-0.6-0.5-1.2-0.5-1.9c0-0.7,0.2-1.4,0.5-1.9c0.3-0.6,0.7-1,1.3-1.3
		c0.5-0.3,1.2-0.4,1.8-0.4s1.3,0.1,1.8,0.4c0.5,0.3,1,0.7,1.3,1.3c0.3,0.6,0.5,1.2,0.5,1.9c0,0.7-0.2,1.4-0.5,1.9
		c-0.3,0.6-0.8,1-1.3,1.3s-1.2,0.5-1.8,0.5C118.9,46.7,118.3,46.6,117.7,46.3z M120.7,45.4c0.4-0.2,0.7-0.5,0.9-0.9
		c0.2-0.4,0.3-0.9,0.3-1.5s-0.1-1.1-0.3-1.5c-0.2-0.4-0.5-0.7-0.9-0.9c-0.4-0.2-0.8-0.3-1.2-0.3c-0.4,0-0.8,0.1-1.2,0.3
		c-0.4,0.2-0.6,0.5-0.9,0.9c-0.2,0.4-0.3,0.9-0.3,1.5c0,0.6,0.1,1.1,0.3,1.5c0.2,0.4,0.5,0.7,0.9,0.9c0.4,0.2,0.7,0.3,1.2,0.3
		S120.4,45.6,120.7,45.4z M118.1,38.2c-0.1-0.1-0.2-0.3-0.2-0.5c0-0.2,0.1-0.4,0.2-0.5c0.1-0.1,0.3-0.2,0.5-0.2
		c0.2,0,0.3,0.1,0.5,0.2c0.1,0.1,0.2,0.3,0.2,0.5c0,0.2-0.1,0.4-0.2,0.5s-0.3,0.2-0.5,0.2C118.4,38.4,118.2,38.4,118.1,38.2z
		 M120.2,38.2c-0.1-0.1-0.2-0.3-0.2-0.5c0-0.2,0.1-0.4,0.2-0.5c0.1-0.1,0.3-0.2,0.5-0.2c0.2,0,0.4,0.1,0.5,0.2
		c0.1,0.1,0.2,0.3,0.2,0.5c0,0.2-0.1,0.4-0.2,0.5c-0.1,0.1-0.3,0.2-0.5,0.2C120.5,38.4,120.3,38.4,120.2,38.2z"/>
	<path class="st9" d="M126.8,39.7c0.4-0.2,0.9-0.3,1.4-0.3v1.2h-0.3c-1.3,0-2,0.7-2,2.2v3.9h-1.2v-7.1h1.2v1.2
		C126.2,40.2,126.4,39.9,126.8,39.7z"/>
</g>
</svg>
